<mxfile host="app.diagrams.net" modified="2023-11-23T07:51:14.094Z" agent="Mozilla/5.0 (Windows NT 10.0; Win64; x64) AppleWebKit/537.36 (KHTML, like Gecko) Chrome/119.0.0.0 Safari/537.36 Edg/119.0.0.0" etag="9iZfCwdHb7g5y4VZ7T4y" version="22.1.3" type="github">
  <diagram name="페이지-1" id="-8yun-3NOsmLTGrZwqc3">
    <mxGraphModel dx="1696" dy="713" grid="0" gridSize="10" guides="1" tooltips="1" connect="1" arrows="1" fold="1" page="0" pageScale="1" pageWidth="827" pageHeight="1169" math="0" shadow="0">
      <root>
        <mxCell id="0" />
        <mxCell id="1" parent="0" />
      </root>
    </mxGraphModel>
  </diagram>
</mxfile>
